<svg width="60" height="50" viewBox="0 0 60 50" fill="none" xmlns="http://www.w3.org/2000/svg">
<path d="M0 0C19.8 0 39.6 0 60 0C60 16.2462 60 32.4923 60 49.2308C40.2 49.2308 20.4 49.2308 0 49.2308C0 32.9846 0 16.7385 0 0Z" fill="#FDFEFE"/>
<path d="M28.9317 2.24203C29.0269 2.24227 29.0269 2.24227 29.124 2.24252C34.2136 2.26322 38.8337 4.31393 42.4066 7.9101C42.8007 8.31316 43.1609 8.72967 43.505 9.17656C43.5907 9.28158 43.5907 9.28158 43.6782 9.38871C44.9872 11.0219 46.0193 12.969 46.6601 14.9608C46.6759 15.0097 46.6917 15.0585 46.708 15.1089C46.9416 15.8462 47.0994 16.5956 47.2423 17.3553C47.2581 17.4392 47.2739 17.523 47.2903 17.6095C47.4639 18.5705 47.5043 19.5219 47.5052 20.4962C47.5053 20.5537 47.5053 20.6111 47.5054 20.6703C47.5031 23.2987 46.9386 25.7702 45.9089 28.182C45.8847 28.2386 45.8605 28.2953 45.8356 28.3537C45.0173 30.2339 43.7858 31.8874 42.3782 33.3652C42.314 33.4327 42.314 33.4327 42.2484 33.5016C41.6077 34.1695 40.9455 34.7704 40.1997 35.3184C40.1573 35.35 40.1148 35.3816 40.071 35.4142C39.0757 36.1532 38.0662 36.7989 36.9209 37.28C36.6848 37.3793 36.4583 37.4902 36.231 37.6081C35.8301 37.8108 35.4195 37.9585 34.993 38.0978C34.9146 38.1235 34.8362 38.1493 34.7555 38.1758C33.9996 38.419 33.2405 38.6166 32.4624 38.7739C32.4052 38.7862 32.3481 38.7985 32.2892 38.8112C27.8531 39.737 22.8543 38.598 19.0961 36.1631C18.2802 35.6227 17.5171 35.0318 16.7995 34.3653C16.6334 34.2114 16.4645 34.0622 16.2928 33.9146C15.808 33.492 15.3723 33.0314 14.9594 32.5389C14.9271 32.5006 14.8949 32.4623 14.8616 32.4228C12.12 29.1443 10.6684 25.0764 10.6595 20.8109C10.6587 20.6023 10.6564 20.3937 10.654 20.185C10.6485 19.2266 10.7426 18.3088 10.9029 17.3647C10.919 17.2653 10.9352 17.1659 10.9513 17.0665C11.4987 13.8243 13.1959 10.6331 15.4456 8.25106C15.6189 8.06731 15.785 7.87936 15.95 7.68824C16.2246 7.37878 16.5208 7.11328 16.8374 6.84783C16.9067 6.78693 16.976 6.72602 17.0475 6.66326C19.3224 4.67393 22.08 3.31493 25.0208 2.6458C25.1594 2.61398 25.1594 2.61398 25.3008 2.58152C26.5065 2.32017 27.7008 2.23632 28.9317 2.24203Z" fill="#FDFDFD"/>
<path d="M26.8994 9.17204C26.9574 9.17272 27.0154 9.1734 27.0752 9.1741C27.1179 9.17497 27.1606 9.17584 27.2046 9.17674C27.1121 9.73927 26.9856 10.2812 26.829 10.8294C26.5067 10.879 26.1845 10.9285 25.8524 10.9796C25.8346 11.1009 25.8346 11.1009 25.8163 11.2246C25.6849 12.0656 25.4785 12.8223 25.0684 13.576C24.9239 13.8149 24.9239 13.8149 25.0062 13.9921C25.1001 14.1525 25.1001 14.1525 25.3031 14.2708C25.3604 14.3251 25.4178 14.3793 25.4768 14.4352C25.4627 14.7169 25.4627 14.7169 25.4017 14.961C25.0276 14.8476 24.7825 14.6187 24.5003 14.36C24.4727 14.4232 24.4727 14.4232 24.4445 14.4877C24.0524 15.205 23.3088 15.8089 22.6223 16.238C22.7511 16.6352 22.9019 17.0212 23.0566 17.4089C23.2554 17.966 23.3248 18.4674 23.3453 19.055C23.3482 19.124 23.3511 19.1929 23.3541 19.264C23.3611 19.4322 23.3676 19.6004 23.3735 19.7687C24.2442 20.1679 25.1009 20.5181 26.0343 20.7431C26.1283 20.767 26.1283 20.767 26.2242 20.7913C26.2795 20.8043 26.3347 20.8173 26.3917 20.8307C26.5285 20.8955 26.5285 20.8955 26.6227 21.0335C26.6788 21.196 26.6788 21.196 26.6788 21.4964C26.0849 21.4052 25.5287 21.2582 24.9604 21.0645C24.8819 21.0381 24.8035 21.0117 24.7227 20.9845C24.1538 20.7896 23.6081 20.5705 23.073 20.2945C23.0621 20.3487 23.0513 20.403 23.0401 20.4588C22.9979 20.6701 22.9979 20.6701 22.9345 20.8591C22.9012 21.0586 22.9012 21.0586 23.0612 21.223C23.1271 21.2822 23.1929 21.3415 23.2608 21.4025C23.5228 21.6459 23.7402 21.8773 23.9416 22.1725C24.1275 22.4245 24.2425 22.5125 24.5519 22.5669C24.6087 22.5747 24.6654 22.5826 24.7239 22.5907C24.8759 22.6232 24.8759 22.6232 25.0684 22.7876C25.2047 23.0544 25.2087 23.2284 25.1763 23.5247C25.1506 23.5692 25.1249 23.6136 25.0983 23.6594C24.9963 23.8935 25.0243 24.0776 25.0443 24.3311C25.0552 24.477 25.0552 24.477 25.0663 24.626C25.0748 24.7284 25.0833 24.8308 25.0918 24.9332C25.0998 25.0368 25.1078 25.1404 25.1156 25.2439C25.1351 25.4972 25.1554 25.7505 25.1763 26.0037C25.219 26.0195 25.2617 26.0353 25.3057 26.0517C26.067 26.3353 26.821 26.618 27.5503 26.9779C27.7323 27.0702 27.7323 27.0702 27.9558 27.0553C28.0607 26.9609 28.0607 26.9609 28.1624 26.8253C29.0656 25.7498 30.1162 24.8577 31.2611 24.0505C31.3252 24.0042 31.3893 23.958 31.4553 23.9103C31.5152 23.8682 31.575 23.8262 31.6367 23.7829C31.6894 23.7456 31.742 23.7084 31.7963 23.6699C31.9372 23.5998 31.9372 23.5998 32.1625 23.6749C32.1873 23.7989 32.2121 23.9228 32.2376 24.0505C32.1713 24.0969 32.105 24.1433 32.0366 24.1911C30.9283 24.971 29.9204 25.8421 28.9558 26.7924C28.917 26.8303 28.8781 26.8682 28.838 26.9072C28.6635 27.0814 28.5608 27.1934 28.4816 27.4309C28.65 27.5338 28.8191 27.6353 28.9887 27.7361C29.0363 27.7654 29.084 27.7947 29.1331 27.8249C29.3945 27.9901 29.3945 27.9901 29.6917 28.0083C29.8665 27.9449 29.9618 27.8592 30.0967 27.7314C30.8015 27.0955 31.555 26.6015 32.3879 26.1539C32.4429 26.1236 32.4979 26.0933 32.5546 26.062C32.6884 26.0037 32.6884 26.0037 32.9137 26.0037C32.9385 26.1524 32.9633 26.3011 32.9888 26.4544C32.9071 26.5008 32.8254 26.5471 32.7412 26.5949C31.8253 27.1205 30.9911 27.6925 30.2094 28.4075C30.4985 28.6706 30.4985 28.6706 30.8855 28.708C30.945 28.7027 31.0046 28.6975 31.0659 28.6921C31.5594 28.6602 31.5594 28.6602 31.769 28.7898C31.961 28.9972 32.0122 29.1576 32.0405 29.4357C32.0123 29.6845 32.0123 29.6845 31.9372 29.9099C32.1603 30.133 32.3834 30.3561 32.6132 30.586C32.9711 30.4429 33.1236 30.3355 33.3973 30.0789C33.4357 30.0429 33.4742 30.0069 33.5138 29.9698C33.6401 29.8505 33.7653 29.7301 33.8903 29.6094C33.9563 29.5459 33.9563 29.5459 34.0237 29.481C34.6582 28.8672 35.2765 28.2438 35.7683 27.5061C35.9185 27.5061 35.9185 27.5061 36.0324 27.6164C36.3345 27.9702 36.6217 28.3314 36.8951 28.708C36.3602 29.3494 35.8144 29.9772 35.2425 30.586C35.1733 30.6599 35.1733 30.6599 35.1028 30.7353C34.7929 31.0563 34.4531 31.3355 34.1054 31.6145C33.9691 31.7244 33.8341 31.8359 33.701 31.9496C32.7278 32.7763 31.6347 33.4428 30.5099 34.0415C30.4561 34.0706 30.4024 34.0998 30.347 34.1298C30.1844 34.2175 30.021 34.3035 29.8573 34.3889C29.783 34.429 29.783 34.429 29.7071 34.4699C29.4071 34.6227 29.253 34.6584 28.9324 34.5674C28.7944 34.507 28.6585 34.4417 28.5245 34.3728C28.4466 34.3328 28.3688 34.2928 28.2886 34.2516C28.2066 34.2086 28.1247 34.1656 28.0403 34.1213C27.9566 34.0775 27.873 34.0337 27.7868 33.9886C27.3062 33.7335 26.8335 33.4712 26.3783 33.1729C26.3325 33.1435 26.2867 33.114 26.2395 33.0836C25.9444 32.8824 25.9444 32.8824 25.8715 32.6977C25.8488 32.5086 25.8811 32.4188 25.9601 32.2468C25.9841 32.1936 26.0081 32.1403 26.0327 32.0855C26.0585 32.0306 26.0842 31.9758 26.1107 31.9194C26.1361 31.8634 26.1615 31.8074 26.1877 31.7498C26.2504 31.6119 26.3143 31.4745 26.3783 31.3372C26.7242 31.3372 26.802 31.4003 27.0731 31.6001C27.1401 31.6489 27.2072 31.6977 27.2762 31.748C27.3523 31.8049 27.3523 31.8049 27.43 31.863C27.4369 31.8003 27.4439 31.7375 27.4511 31.6729C27.5134 31.3721 27.6287 31.1199 27.768 30.8489C27.7944 30.7969 27.8208 30.7448 27.848 30.6912C28.1703 30.0692 28.5278 29.446 28.9902 28.9175C29.1812 28.7234 29.1812 28.7234 29.1577 28.4826C28.7611 28.2595 28.3644 28.0364 27.9558 27.8065C27.9062 27.9305 27.8566 28.0544 27.8056 28.1821C27.7244 28.2988 27.6395 28.4129 27.552 28.5249C26.6692 29.7216 26.0221 31.0424 25.4017 32.3889C24.7837 32.0906 24.2786 31.5817 23.7761 31.1221C23.6227 30.9832 23.4663 30.8502 23.3077 30.7174C21.8841 29.4718 20.7003 27.7923 19.9179 26.0788C19.9669 26.0868 20.0159 26.0948 20.0664 26.1031C20.4829 26.1603 20.7627 26.1875 21.1199 25.9285C21.2254 25.7745 21.2254 25.7745 21.2701 25.6281C21.1562 25.7024 21.1562 25.7024 21.04 25.7783C20.7548 25.939 20.5485 25.9835 20.2184 25.9285C20.0024 25.7454 20.0024 25.7454 19.8428 25.5529C19.818 25.5281 19.7932 25.5034 19.7677 25.4778C19.7457 25.2575 19.7301 25.0913 19.7677 24.8769C19.9508 24.6562 19.9508 24.6562 20.1433 24.5013C20.1681 24.4765 20.1929 24.4517 20.2184 24.4261C20.5391 24.3884 20.7444 24.3951 20.9978 24.5951C21.1876 24.794 21.2236 24.8493 21.2701 25.1022C21.324 25.1051 21.3779 25.1079 21.4335 25.1109C22.019 25.1498 22.5659 25.254 23.134 25.398C23.2151 25.4179 23.2962 25.4378 23.3798 25.4583C23.7807 25.5574 24.1793 25.6613 24.5754 25.7783C24.5368 25.2007 24.4945 24.6253 24.4251 24.0505C24.3709 24.0459 24.3167 24.0412 24.2608 24.0364C23.9613 23.9499 23.8537 23.8566 23.6739 23.5998C23.6716 23.4176 23.6716 23.4176 23.688 23.2101C23.7105 22.7456 23.5446 22.5334 23.2417 22.1954C23.186 22.1383 23.1304 22.0811 23.073 22.0223C22.9953 21.9412 22.9953 21.9412 22.916 21.8585C22.7951 21.7354 22.6726 21.6149 22.5471 21.4964C22.3814 21.5766 22.2218 21.6613 22.063 21.7547C21.9965 21.7934 21.9301 21.8321 21.8617 21.872C21.7964 21.9108 21.7311 21.9495 21.6639 21.9894C21.0921 22.2429 20.4982 22.2719 19.8804 22.2664C19.8148 22.267 19.7493 22.2676 19.6817 22.2682C19.2192 22.2668 18.7902 22.2035 18.3404 22.0974C18.2908 21.8991 18.2413 21.7008 18.1902 21.4964C18.2361 21.5073 18.282 21.5181 18.3293 21.5293C18.8632 21.6376 19.3835 21.6654 19.9273 21.6702C20.0307 21.6721 20.0307 21.6721 20.1361 21.6741C20.8613 21.6736 21.53 21.5217 22.0656 21.0058C22.3555 20.694 22.4945 20.3987 22.6223 19.994C22.5637 19.9768 22.5051 19.9596 22.4447 19.9418C22.0851 19.8128 21.7491 19.6453 21.4063 19.4776C20.7219 19.1475 20.0714 18.8387 19.317 18.717C19.328 18.773 19.3389 18.829 19.3503 18.8868C19.4004 19.1431 19.4502 19.3996 19.5001 19.656C19.5174 19.7441 19.5347 19.8322 19.5525 19.923C19.6394 20.3717 19.7188 20.8167 19.7677 21.2711C19.5641 21.2518 19.3607 21.2313 19.1573 21.21C19.0716 21.2021 19.0716 21.2021 18.9842 21.1941C18.9281 21.188 18.8719 21.182 18.814 21.1757C18.7629 21.1706 18.7117 21.1655 18.6591 21.1602C18.4213 21.1046 18.2455 21.0285 18.0399 20.8955C17.9543 20.6875 17.9543 20.6875 17.9138 20.4371C17.8983 20.346 17.8828 20.2549 17.8668 20.161C17.8527 20.0656 17.8385 19.9702 17.824 19.872C17.8081 19.7783 17.7922 19.6847 17.7758 19.5882C17.6951 19.0918 17.6458 18.6187 17.6643 18.116C19.631 18.0494 21.0509 18.5832 22.7725 19.4682C22.7436 18.435 22.5295 17.5556 22.0964 16.6136C22.0537 16.6329 22.0111 16.6522 21.9671 16.6721C20.3692 17.3898 20.3692 17.3898 19.5423 17.5151C19.4817 17.5247 19.4211 17.5342 19.3586 17.5441C18.7729 17.6186 18.1783 17.5957 17.5892 17.5902C17.4249 16.6732 17.4182 15.7682 17.4235 14.8388C17.4249 14.5887 17.4251 14.3388 17.425 14.0887C17.4254 13.9281 17.4258 13.7674 17.4264 13.6068C17.4264 13.5329 17.4265 13.459 17.4266 13.3829C17.4342 12.2715 17.4342 12.2715 17.6303 12.0507C17.6849 12.0226 17.7395 11.9945 17.7958 11.9656C17.8644 11.9297 17.9331 11.8939 18.0038 11.857C18.1333 11.7945 18.1333 11.7945 18.2653 11.7308C18.3752 11.6747 18.485 11.6186 18.5948 11.5624C20.9255 10.3921 23.4337 9.66287 26.0027 9.25186C26.0556 9.24328 26.1086 9.23471 26.1632 9.22587C26.4104 9.18789 26.6493 9.1682 26.8994 9.17204Z" fill="#46A8AB"/>
<path d="M28.9317 2.24203C29.0269 2.24227 29.0269 2.24227 29.124 2.24252C34.2136 2.26322 38.8337 4.31393 42.4066 7.9101C42.8007 8.31316 43.1609 8.72967 43.505 9.17656C43.5907 9.28158 43.5907 9.28158 43.6782 9.38871C44.9872 11.0219 46.0193 12.969 46.6601 14.9608C46.6759 15.0097 46.6917 15.0585 46.708 15.1089C46.9416 15.8462 47.0994 16.5956 47.2423 17.3553C47.2581 17.4392 47.2739 17.523 47.2903 17.6095C47.4639 18.5705 47.5043 19.5219 47.5052 20.4962C47.5053 20.5537 47.5053 20.6111 47.5054 20.6703C47.5031 23.2987 46.9386 25.7702 45.9089 28.182C45.8847 28.2386 45.8605 28.2953 45.8356 28.3537C45.0173 30.2339 43.7858 31.8874 42.3782 33.3652C42.314 33.4327 42.314 33.4327 42.2484 33.5016C41.6077 34.1695 40.9455 34.7704 40.1997 35.3184C40.1573 35.35 40.1148 35.3816 40.071 35.4142C39.0757 36.1532 38.0662 36.7989 36.9209 37.28C36.6848 37.3793 36.4583 37.4902 36.231 37.6081C35.8301 37.8108 35.4195 37.9585 34.993 38.0978C34.9146 38.1235 34.8362 38.1493 34.7555 38.1758C33.9996 38.419 33.2405 38.6166 32.4624 38.7739C32.4052 38.7862 32.3481 38.7985 32.2892 38.8112C27.8531 39.737 22.8543 38.598 19.0961 36.1631C18.2802 35.6227 17.5171 35.0318 16.7995 34.3653C16.6334 34.2114 16.4645 34.0622 16.2928 33.9146C15.808 33.492 15.3723 33.0314 14.9594 32.5389C14.9271 32.5006 14.8949 32.4623 14.8616 32.4228C12.12 29.1443 10.6684 25.0764 10.6595 20.8109C10.6587 20.6023 10.6564 20.3937 10.654 20.185C10.6485 19.2266 10.7426 18.3088 10.9029 17.3647C10.919 17.2653 10.9352 17.1659 10.9513 17.0665C11.4987 13.8243 13.1959 10.6331 15.4456 8.25106C15.6189 8.06731 15.785 7.87936 15.95 7.68824C16.2246 7.37878 16.5208 7.11328 16.8374 6.84783C16.9067 6.78693 16.976 6.72602 17.0475 6.66326C19.3224 4.67393 22.08 3.31493 25.0208 2.6458C25.1594 2.61398 25.1594 2.61398 25.3008 2.58152C26.5065 2.32017 27.7008 2.23632 28.9317 2.24203ZM25.9269 3.69279C25.8552 3.70731 25.7834 3.72184 25.7095 3.7368C22.6631 4.36389 19.7758 5.74778 17.5135 7.89952C17.4091 7.99086 17.3043 8.08167 17.1989 8.17183C16.6144 8.68268 16.1148 9.24251 15.6355 9.85264C15.5813 9.92139 15.5272 9.99015 15.4714 10.061C13.5736 12.5305 12.4125 15.3413 11.9546 18.4163C11.9346 18.5353 11.9346 18.5353 11.9142 18.6567C11.8725 18.9993 11.8673 19.3348 11.8668 19.6796C11.8666 19.7497 11.8663 19.8198 11.8661 19.8921C11.8657 20.0401 11.8655 20.1882 11.8655 20.3362C11.8654 20.5594 11.864 20.7826 11.8626 21.0058C11.8602 21.7867 11.8893 22.5293 12.0297 23.2991C12.0513 23.4371 12.0728 23.5752 12.0942 23.7132C12.5091 26.184 13.503 28.5468 14.9594 30.5858C14.9889 30.6272 15.0184 30.6686 15.0488 30.7112C15.5628 31.424 16.1531 32.0577 16.7623 32.6892C16.8012 32.7302 16.8402 32.7712 16.8803 32.8134C18.5299 34.5485 20.6625 35.8571 22.8866 36.7187C23.0538 36.7841 23.2192 36.8542 23.3819 36.9299C23.7914 37.1065 24.2279 37.2013 24.6593 37.3091C24.744 37.3312 24.8287 37.3534 24.916 37.3763C26.2951 37.7229 27.6629 37.8416 29.082 37.8349C29.1588 37.8347 29.2355 37.8346 29.3147 37.8344C33.8879 37.8152 38.1542 35.9066 41.397 32.7079C43.122 30.9652 44.3332 28.8644 45.246 26.6071C45.2963 26.4829 45.3476 26.3592 45.3992 26.2356C45.849 25.0956 46.0539 23.8339 46.2094 22.6231C46.2201 22.5433 46.2201 22.5433 46.2312 22.4619C46.421 20.8649 46.4016 19.0865 46.0591 17.5149C46.0438 17.4439 46.0285 17.3728 46.0127 17.2997C45.2897 14.0396 43.789 11.1381 41.4768 8.72584C41.4202 8.66614 41.4202 8.66614 41.3624 8.60524C40.768 7.98136 40.1399 7.43644 39.4485 6.92296C39.3863 6.8758 39.3863 6.8758 39.3228 6.8277C38.5787 6.26479 37.7894 5.78979 36.9696 5.34543C36.9194 5.31814 36.8693 5.29084 36.8176 5.26272C35.3807 4.49697 33.6897 3.96426 32.0868 3.69279C31.9988 3.67643 31.9988 3.67643 31.9091 3.65974C29.9944 3.31124 27.8338 3.28606 25.9269 3.69279Z" fill="#3576A1"/>
<path d="M26.8994 9.17204C26.9574 9.17272 27.0154 9.1734 27.0752 9.1741C27.1179 9.17497 27.1606 9.17584 27.2046 9.17674C27.1121 9.73927 26.9856 10.2812 26.829 10.8294C26.5067 10.879 26.1845 10.9285 25.8524 10.9796C25.8346 11.1009 25.8346 11.1009 25.8163 11.2246C25.6849 12.0656 25.4785 12.8223 25.0684 13.576C24.9239 13.8149 24.9239 13.8149 25.0062 13.9921C25.1001 14.1525 25.1001 14.1525 25.3031 14.2708C25.3604 14.3251 25.4178 14.3793 25.4768 14.4352C25.4627 14.7169 25.4627 14.7169 25.4017 14.961C25.0276 14.8476 24.7825 14.6187 24.5003 14.36C24.4727 14.4232 24.4727 14.4232 24.4445 14.4877C24.0524 15.205 23.3089 15.8089 22.6223 16.238C22.7511 16.6352 22.9019 17.0212 23.0566 17.4089C23.2554 17.966 23.3248 18.4674 23.3453 19.055C23.3482 19.124 23.3511 19.1929 23.3541 19.264C23.3611 19.4322 23.3676 19.6004 23.3735 19.7687C24.2442 20.1679 25.1009 20.5181 26.0343 20.7431C26.1283 20.767 26.1283 20.767 26.2242 20.7913C26.2795 20.8043 26.3347 20.8173 26.3917 20.8307C26.5285 20.8955 26.5285 20.8955 26.6227 21.0335C26.6788 21.196 26.6788 21.196 26.6788 21.4964C26.0849 21.4052 25.5287 21.2582 24.9604 21.0645C24.8819 21.0381 24.8035 21.0117 24.7227 20.9845C24.1538 20.7896 23.6081 20.5705 23.073 20.2945C23.0482 20.4185 23.0234 20.5424 22.9979 20.6701C22.9235 20.6949 22.8491 20.7197 22.7725 20.7452C22.7586 20.8312 22.7586 20.8312 22.7443 20.919C22.6974 21.1208 22.6974 21.1208 22.5471 21.3462C22.35 21.3978 22.35 21.3978 22.1715 21.4213C22.1653 21.4668 22.159 21.5123 22.1525 21.5592C22.0789 21.7725 21.9967 21.8122 21.8006 21.919C21.7473 21.9494 21.6939 21.9798 21.639 22.0111C21.0692 22.236 20.487 22.2718 19.8804 22.2664C19.8148 22.267 19.7493 22.2676 19.6817 22.2682C19.2192 22.2668 18.7902 22.2035 18.3404 22.0974C18.2908 21.8991 18.2413 21.7008 18.1902 21.4964C18.2361 21.5073 18.282 21.5181 18.3293 21.5293C18.8632 21.6376 19.3835 21.6654 19.9273 21.6702C20.0307 21.6721 20.0307 21.6721 20.1361 21.6741C20.8613 21.6736 21.53 21.5217 22.0656 21.0058C22.3555 20.694 22.4945 20.3987 22.6223 19.994C22.5637 19.9768 22.5051 19.9596 22.4447 19.9418C22.0851 19.8128 21.7491 19.6453 21.4063 19.4776C20.7219 19.1475 20.0714 18.8387 19.317 18.717C19.328 18.773 19.3389 18.829 19.3503 18.8868C19.4004 19.1431 19.4503 19.3996 19.5001 19.656C19.5174 19.7441 19.5347 19.8322 19.5525 19.923C19.6394 20.3717 19.7188 20.8167 19.7677 21.2711C19.5641 21.2518 19.3607 21.2313 19.1573 21.21C19.0716 21.2021 19.0716 21.2021 18.9842 21.1941C18.9281 21.188 18.8719 21.182 18.814 21.1757C18.7629 21.1706 18.7117 21.1655 18.6591 21.1602C18.4213 21.1046 18.2455 21.0285 18.0399 20.8955C17.9543 20.6875 17.9543 20.6875 17.9138 20.4371C17.8983 20.346 17.8828 20.2549 17.8668 20.161C17.8527 20.0656 17.8385 19.9702 17.824 19.872C17.8081 19.7783 17.7922 19.6847 17.7758 19.5882C17.6951 19.0918 17.6458 18.6187 17.6643 18.116C19.631 18.0494 21.0509 18.5832 22.7725 19.4682C22.7436 18.435 22.5295 17.5556 22.0964 16.6136C22.0538 16.6329 22.0111 16.6522 21.9671 16.6721C20.3692 17.3898 20.3692 17.3898 19.5423 17.5151C19.4817 17.5247 19.4211 17.5342 19.3586 17.5441C18.7729 17.6186 18.1783 17.5957 17.5892 17.5902C17.4249 16.6732 17.4182 15.7682 17.4235 14.8388C17.4249 14.5887 17.4251 14.3388 17.425 14.0887C17.4254 13.9281 17.4258 13.7674 17.4264 13.6068C17.4264 13.5329 17.4265 13.459 17.4266 13.3829C17.4342 12.2715 17.4342 12.2715 17.6303 12.0507C17.6849 12.0226 17.7395 11.9945 17.7958 11.9656C17.8644 11.9297 17.9331 11.8939 18.0038 11.857C18.1333 11.7945 18.1333 11.7945 18.2653 11.7308C18.3752 11.6747 18.485 11.6186 18.5948 11.5624C20.9255 10.3921 23.4337 9.66287 26.0027 9.25186C26.0556 9.24328 26.1086 9.23471 26.1632 9.22587C26.4104 9.18789 26.6493 9.1682 26.8994 9.17204Z" fill="#325E99"/>
<path d="M28.629 8.72614C28.8149 8.76332 28.8149 8.76332 29.0046 8.80126C29.015 9.81468 29.023 10.8281 29.0279 11.8416C29.0303 12.3121 29.0335 12.7827 29.0386 13.2532C29.0435 13.7072 29.0462 14.1611 29.0473 14.6151C29.0482 14.7884 29.0498 14.9618 29.0522 15.1351C29.0555 15.3776 29.0559 15.62 29.0557 15.8625C29.0574 15.9344 29.059 16.0064 29.0606 16.0806C29.0589 16.2691 29.0537 16.4317 29.0046 16.6138C28.7848 16.8001 28.7848 16.8001 28.5538 16.9142C28.3756 17.1341 28.3315 17.266 28.2956 17.5481C28.3436 17.9391 28.5021 18.154 28.7933 18.4119C29.104 18.5293 29.3635 18.5092 29.6806 18.4166C29.9443 18.2642 30.1081 18.1108 30.2065 17.8157C30.2521 17.3536 30.2521 17.3536 30.0375 16.9612C29.8614 16.7931 29.745 16.7119 29.5304 16.6138C29.5269 15.6075 29.5243 14.6013 29.5226 13.595C29.5218 13.1279 29.5208 12.6607 29.5191 12.1935C29.5174 11.7429 29.5165 11.2924 29.5162 10.8419C29.5159 10.6696 29.5153 10.4974 29.5145 10.3252C29.5134 10.0847 29.5133 9.8442 29.5134 9.6037C29.5128 9.53189 29.5123 9.46008 29.5117 9.38609C29.5119 9.32078 29.5121 9.25547 29.5123 9.18818C29.5122 9.13126 29.5121 9.07434 29.5119 9.0157C29.5304 8.87638 29.5304 8.87638 29.6806 8.72614C29.8319 8.73237 29.8319 8.73237 29.9811 8.80126C30.0587 8.95289 30.0587 8.95289 30.1149 9.15221C30.1467 9.26122 30.1467 9.26122 30.1792 9.37243C30.2006 9.45043 30.222 9.52843 30.2441 9.6088C30.2671 9.68835 30.2901 9.7679 30.3138 9.84986C30.3791 10.076 30.4431 10.3025 30.507 10.529C30.6029 10.856 30.7031 11.1812 30.8075 11.5056C30.8348 11.5907 30.8348 11.5907 30.8626 11.6775C31.518 13.6967 32.3285 15.7166 33.5869 17.4401C33.4716 17.7029 33.3137 17.8949 33.1268 18.1115C32.482 18.8917 32.0408 19.7515 31.6338 20.6702C31.6027 20.7399 31.5716 20.8095 31.5396 20.8812C31.4911 20.9902 31.4429 21.0993 31.3952 21.2087C31.3286 21.3567 31.2556 21.5017 31.1831 21.6468C29.8692 21.6468 28.5553 21.6468 27.2017 21.6468C27.1025 21.275 27.0034 20.9031 26.9012 20.52C26.8124 20.3031 26.7289 20.1086 26.6195 19.905C26.5937 19.8553 26.5679 19.8057 26.5413 19.7545C26.1552 19.0268 25.6916 18.3825 25.1426 17.7687C25.0232 17.5903 25.0232 17.5903 25.0261 17.4427C25.1214 17.241 25.2352 17.0593 25.3565 16.872C26.76 14.6306 27.7109 12.0555 28.3359 9.49375C28.361 9.39194 28.361 9.39194 28.3866 9.28807C28.4009 9.22834 28.4151 9.16861 28.4298 9.10707C28.4787 8.9515 28.4787 8.9515 28.629 8.72614Z" fill="#2D5C96"/>
<path d="M31.3316 9.17676C31.9975 9.21583 32.6437 9.29632 33.2988 9.4209C33.3871 9.43751 33.4753 9.45411 33.5663 9.47122C34.2354 9.60062 34.8896 9.75815 35.5409 9.95811C35.6815 10.0009 35.8228 10.0411 35.9641 10.0811C37.708 10.592 39.3391 11.3477 40.947 12.1816C40.9506 12.7224 40.9532 13.2632 40.9548 13.8041C40.9556 14.0554 40.9567 14.3067 40.9584 14.558C40.966 15.7542 40.9433 16.9283 40.7968 18.1161C40.7852 18.2157 40.7737 18.3153 40.7623 18.4149C40.5203 20.439 40.1383 22.4826 39.2944 24.351C39.2481 24.4579 39.2019 24.5648 39.1559 24.6718C38.8574 25.3602 38.537 26.0264 38.1676 26.6798C37.8553 26.562 37.6747 26.3336 37.468 26.0835C37.4154 26.0229 37.4154 26.0229 37.3616 25.961C37.2623 25.842 37.2623 25.842 37.1159 25.6281C37.191 25.4027 37.191 25.4027 37.3294 25.3232C37.3883 25.2996 37.4472 25.2761 37.5079 25.2519C37.5717 25.2258 37.6356 25.1998 37.7013 25.173C37.7684 25.1465 37.8355 25.1201 37.9047 25.0928C38.037 25.0396 38.1692 24.9862 38.3014 24.9326C38.3603 24.9093 38.4192 24.8859 38.4799 24.8619C38.6168 24.8125 38.6168 24.8125 38.6934 24.7266C38.731 24.5108 38.731 24.5108 38.6934 24.2759C38.4549 24.0303 38.1755 23.8935 37.8671 23.7501C37.9119 23.3912 37.9613 23.0032 38.1676 22.6984C38.3187 22.6272 38.4536 22.6006 38.6183 22.5743C38.8307 22.5373 38.9741 22.4528 39.1441 22.3228C39.3848 21.9365 39.3412 21.4755 39.2427 21.0457C39.1142 20.8499 38.9844 20.8234 38.7685 20.7453C38.8147 20.139 38.8957 19.5423 38.9939 18.9424C38.9256 18.9842 38.8574 19.026 38.787 19.0691C37.0111 20.1511 34.6161 21.5448 32.4584 21.3462C32.2237 21.2711 32.2237 21.2711 32.0828 21.196C32.0828 21.1216 32.0828 21.0472 32.0828 20.9706C32.1488 20.9589 32.1488 20.9589 32.2162 20.9469C34.5606 20.5189 36.7809 19.7284 38.775 18.4063C38.9939 18.2663 38.9939 18.2663 39.2193 18.1912C39.244 17.7945 39.2688 17.3979 39.2944 16.9893C39.1952 17.014 39.0961 17.0388 38.9939 17.0644C38.8142 17.0714 38.6344 17.0742 38.4546 17.0744C38.3768 17.0745 38.3768 17.0745 38.2974 17.0746C38.1879 17.0746 38.0784 17.0745 37.969 17.0742C37.8025 17.0738 37.636 17.0742 37.4695 17.0746C37.3628 17.0746 37.2561 17.0745 37.1493 17.0744C37.0529 17.0743 36.9565 17.0742 36.8571 17.0741C36.5901 17.0644 36.5901 17.0644 36.1393 16.9893C36.0898 17.3859 36.0402 17.7825 35.9891 18.1912C36.0882 18.2408 36.1874 18.2903 36.2896 18.3414C36.483 18.5279 36.5134 18.6299 36.5478 18.9001C36.5094 19.2126 36.438 19.326 36.2145 19.5433C36.0097 19.6987 35.9136 19.6936 35.651 19.6842C35.3658 19.6129 35.2668 19.5454 35.0876 19.318C34.9672 19.077 34.9652 18.8275 35.0125 18.5668C35.073 18.5095 35.1334 18.4521 35.1956 18.3931C35.453 18.1232 35.4331 17.9269 35.4498 17.5656C35.4655 17.3307 35.5253 17.1317 35.6135 16.9141C35.5715 16.8985 35.5294 16.883 35.4861 16.8669C35.2765 16.7863 35.0695 16.7003 34.8623 16.6137C34.7747 16.5789 34.687 16.5441 34.5967 16.5083C33.9936 16.2445 33.6673 15.9786 33.3555 15.3797C33.3321 15.3159 33.3088 15.2521 33.2848 15.1864C33.3096 15.1368 33.3343 15.0872 33.3599 15.0361C33.4324 15.0934 33.4324 15.0934 33.5063 15.1517C34.2125 15.6897 35.0724 16.2381 35.9891 16.2381C36.1035 16.107 36.1035 16.107 36.1957 15.9329C36.3595 15.6652 36.5171 15.4834 36.7638 15.2897C37.0615 15.0473 37.0676 14.8899 37.1159 14.5103C37.3229 14.2448 37.5406 14.0849 37.8671 14.0032C38.1948 14.0852 38.4132 14.2415 38.6183 14.5103C38.6711 14.8111 38.6477 14.9699 38.5244 15.2474C38.3828 15.4244 38.3013 15.4812 38.0925 15.562C37.9173 15.5608 37.9173 15.5608 37.7309 15.5432C37.4341 15.5371 37.2796 15.5679 37.0502 15.7592C36.8346 15.9732 36.67 16.203 36.5149 16.4634C37.0189 16.5256 37.5195 16.5467 38.0267 16.5479C38.0822 16.5483 38.1378 16.5486 38.195 16.549C38.5961 16.5479 38.9659 16.5083 39.3695 16.4634C39.3695 15.3727 39.3695 14.2819 39.3695 13.1581C39.2208 13.1085 39.072 13.059 38.9188 13.0079C38.7375 12.9253 38.558 12.8411 38.3789 12.7544C37.6257 12.3562 37.6257 12.3562 36.8154 12.1816C36.7867 12.306 36.7618 12.4313 36.7403 12.5572C36.7651 12.582 36.7899 12.6067 36.8154 12.6323C36.857 12.9626 36.8523 13.2315 36.7074 13.5337C36.4311 13.7494 36.1862 13.7969 35.8389 13.7591C35.509 13.5913 35.509 13.5913 35.3881 13.3835C35.3245 13.1192 35.3223 12.8963 35.3881 12.6323C35.5227 12.4382 35.6267 12.3791 35.8389 12.2567C35.938 12.2567 36.0372 12.2567 36.1393 12.2567C36.1641 12.1327 36.1889 12.0088 36.2145 11.8811C35.9206 11.7907 35.6263 11.7019 35.3318 11.6135C35.2066 11.5749 35.2066 11.5749 35.0788 11.5356C34.9985 11.5116 34.9181 11.4876 34.8353 11.4629C34.7613 11.4405 34.6874 11.4181 34.6112 11.395C34.3293 11.3389 34.1838 11.3868 33.9412 11.5322C33.3503 11.9785 32.846 12.5963 32.6087 13.3084C32.5591 13.3084 32.5095 13.3084 32.4584 13.3084C32.3353 12.9778 32.2477 12.695 32.3942 12.3611C32.6589 11.9763 32.9753 11.6445 33.3147 11.3247C33.4422 11.2106 33.4422 11.2106 33.5101 11.0548C33.3775 11.0382 33.2449 11.0216 33.1122 11.005C32.8442 10.9715 32.5762 10.938 32.3082 10.9045C32.2508 10.8973 32.1934 10.8902 32.1342 10.8828C31.9207 10.8561 31.9207 10.8561 31.7072 10.8294C31.644 10.6246 31.5815 10.4195 31.5194 10.2144C31.5015 10.1566 31.4836 10.0988 31.4652 10.0393C31.4482 9.98291 31.4313 9.92651 31.4138 9.86839C31.3981 9.81686 31.3823 9.76532 31.3661 9.71223C31.3268 9.53015 31.326 9.36248 31.3316 9.17676Z" fill="#7ABE85"/>
<path d="M31.9351 21.5715C32.5889 21.811 33.2182 22.0829 33.8456 22.3842C35.2947 23.0792 36.7692 23.7156 38.2452 24.351C38.2452 24.4253 38.2452 24.4997 38.2452 24.5763C37.948 24.702 37.6506 24.827 37.3531 24.9519C37.2684 24.9878 37.1836 25.0236 37.0963 25.0605C37.0155 25.0944 36.9346 25.1283 36.8513 25.1632C36.7766 25.1947 36.7018 25.2262 36.6248 25.2586C36.4423 25.3275 36.4423 25.3275 36.292 25.3275C37.0175 26.1687 37.0175 26.1687 37.785 26.9708C38.1496 27.3328 38.1496 27.3328 38.2452 27.506C38.2138 27.7762 38.1024 27.8971 37.9071 28.0788C37.7104 28.2599 37.7104 28.2599 37.5691 28.4826C37.2955 28.4395 37.1721 28.3375 36.9822 28.1399C36.9033 28.0579 36.9033 28.0579 36.8229 27.9744C36.6405 27.7772 36.4628 27.5767 36.2876 27.3731C35.9946 27.0365 35.6916 26.7087 35.3906 26.3792C35.0803 26.7236 34.8966 27.1164 34.6957 27.5295C34.6613 27.5995 34.6268 27.6694 34.5913 27.7415C34.5067 27.9132 34.4226 28.0851 34.3389 28.2572C34.2274 28.22 34.2274 28.22 34.1135 28.1821C34.0313 27.994 33.9639 27.8138 33.9008 27.6193C33.8814 27.5619 33.862 27.5046 33.842 27.4455C33.7814 27.2656 33.7221 27.0854 33.6628 26.9051C33.6271 26.798 33.5912 26.691 33.5553 26.584C33.4664 26.3181 33.3784 26.0519 33.2906 25.7857C33.0407 25.0273 32.7887 24.2699 32.5193 23.5182C32.5 23.4643 32.4807 23.4105 32.4608 23.355C32.3691 23.0994 32.2765 22.8441 32.1831 22.5891C32.1504 22.4989 32.1178 22.4087 32.0841 22.3157C32.0552 22.2369 32.0264 22.1581 31.9966 22.077C31.9351 21.872 31.9351 21.872 31.9351 21.5715Z" fill="#2D669B"/>
<path d="M25.2512 11.0546C25.2861 12.0161 24.9401 12.6994 24.5 13.5335C24.1118 13.5335 23.8821 13.4221 23.5985 13.1579C23.5152 12.9827 23.4656 12.8203 23.4233 12.6312C23.3806 12.4536 23.3806 12.4536 23.1478 12.3316C22.7924 12.2684 22.5435 12.2833 22.2417 12.4865C22.0605 12.7613 22.0549 12.9095 22.0961 13.2331C22.1594 13.4283 22.209 13.5059 22.3731 13.6274C22.6681 13.7231 22.9573 13.7169 23.2546 13.6315C23.513 13.601 23.6029 13.678 23.8098 13.8293C23.8692 13.8718 23.9285 13.9143 23.9897 13.9581C24.0341 13.9915 24.0786 14.025 24.1244 14.0594C23.6569 14.7397 23.0894 15.3353 22.3966 15.7871C22.106 15.6733 21.9763 15.503 21.7909 15.2566C21.0738 14.3631 20.1804 13.7995 19.0913 13.4584C19.1078 13.2832 19.1078 13.2832 19.1664 13.0828C19.3121 12.9715 19.3121 12.9715 19.5042 12.8812C19.575 12.8474 19.6458 12.8136 19.7188 12.7788C19.7953 12.7443 19.8717 12.7099 19.9505 12.6743C20.0283 12.6382 20.106 12.6021 20.1861 12.5649C20.8109 12.2805 21.4438 12.0512 22.1001 11.8527C22.252 11.804 22.3999 11.7484 22.5486 11.6907C22.836 11.5811 23.1257 11.5028 23.4248 11.4302C23.4762 11.4177 23.5276 11.4051 23.5805 11.3922C23.7367 11.3544 23.8929 11.3171 24.0492 11.2799C24.1439 11.2571 24.2387 11.2342 24.3362 11.2107C24.9945 11.0546 24.9945 11.0546 25.2512 11.0546Z" fill="#F9FAFB"/>
<path d="M14.8828 41.7789C15.7843 41.7789 15.7843 41.7789 16.0542 42.016C16.13 42.1227 16.2027 42.2317 16.2725 42.3423C16.3539 42.4595 16.4353 42.5767 16.5167 42.6939C16.577 42.784 16.577 42.784 16.6385 42.876C16.8315 43.1599 17.0408 43.4311 17.2491 43.7039C17.3205 43.7986 17.3917 43.8935 17.4627 43.9885C17.4923 44.028 17.5219 44.0675 17.5524 44.1081C17.7164 44.3317 17.8767 44.5581 18.0379 44.7837C18.0627 43.8169 18.0874 42.8501 18.113 41.8541C18.4105 41.8541 18.7079 41.8541 19.0144 41.8541C19.0144 43.391 19.0144 44.928 19.0144 46.5115C18.7169 46.5115 18.4195 46.5115 18.113 46.5115C17.9048 46.2769 17.7574 46.0854 17.6001 45.8231C17.4264 45.5511 17.2222 45.3009 17.0237 45.0467C16.651 44.5648 16.2931 44.0748 15.9345 43.5818C15.9097 44.5486 15.8849 45.5154 15.8594 46.5115C15.5371 46.5115 15.2148 46.5115 14.8828 46.5115C14.8828 44.9498 14.8828 43.388 14.8828 41.7789Z" fill="#283F73"/>
<path d="M22.5915 43.1405C22.9017 43.3232 23.095 43.5091 23.2957 43.8072C23.3407 43.8707 23.3856 43.9343 23.4319 43.9997C23.602 44.4921 23.6212 45.079 23.4084 45.5632C23.1325 46.0228 22.6975 46.3935 22.1833 46.5535C21.6007 46.6709 21.1287 46.6207 20.6084 46.3276C20.1836 46.0317 19.9189 45.6548 19.7651 45.1594C19.6999 44.5774 19.8009 44.028 20.1671 43.5602C20.8178 42.8848 21.7375 42.7492 22.5915 43.1405Z" fill="#273F73"/>
<path d="M29.6833 28.858C29.9943 28.9678 30.254 29.0986 30.5096 29.3088C30.5645 29.4826 30.6148 29.6579 30.6598 29.8346C30.8414 30.0363 30.9358 30.0581 31.2085 30.079C31.5486 30.1477 31.6617 30.2633 31.8946 30.5154C31.9596 30.5844 32.0246 30.6535 32.0915 30.7246C32.1396 30.7779 32.1878 30.8313 32.2373 30.8863C31.888 31.7381 30.4475 32.2731 29.6833 32.6892C29.6317 32.7181 29.5801 32.7471 29.527 32.7769C29.2885 32.8803 29.1054 32.8215 28.8569 32.7643C28.592 32.6419 28.592 32.6419 28.3358 32.4967C28.2069 32.4245 28.2069 32.4245 28.0755 32.3508C28.0111 32.3137 27.9467 32.2767 27.8804 32.2384C27.9164 31.793 28.0069 31.4637 28.2137 31.0694C28.2399 31.0182 28.2662 30.9671 28.2932 30.9143C28.6801 30.1781 29.1428 29.4897 29.6833 28.858Z" fill="#FAFDFD"/>
<path d="M13.2013 43.0516C13.6761 43.3371 13.9614 43.7315 14.1312 44.2577C14.1312 44.5304 14.1312 44.803 14.1312 45.084C13.2883 45.084 12.4455 45.084 11.5771 45.084C11.8248 45.5011 11.8248 45.5011 12.178 45.7601C12.5425 45.8019 12.7502 45.7974 13.0607 45.6004C13.3048 45.4596 13.3048 45.4596 13.4692 45.5018C13.5366 45.5553 13.5366 45.5553 13.6053 45.6098C13.6611 45.6501 13.7169 45.6904 13.7743 45.7319C13.8177 45.766 13.8611 45.8001 13.9058 45.8352C13.7921 46.1535 13.5911 46.271 13.3048 46.4362C12.7576 46.6794 12.2097 46.641 11.6575 46.4341C11.2053 46.2217 10.9667 45.8995 10.7508 45.4596C10.6007 44.9845 10.5845 44.3925 10.7883 43.9337C11.2922 43.0716 12.2554 42.7105 13.2013 43.0516Z" fill="#273E73"/>
<path d="M29.1257 43.1074C29.4148 43.2814 29.6041 43.5055 29.7548 43.807C29.7614 44.0097 29.7635 44.2105 29.7622 44.4132C29.7621 44.473 29.762 44.5329 29.7619 44.5945C29.7614 44.7858 29.7605 44.9772 29.7595 45.1685C29.7592 45.2981 29.7588 45.4277 29.7585 45.5574C29.7577 45.8753 29.7564 46.1933 29.7548 46.5113C29.4574 46.5113 29.1599 46.5113 28.8534 46.5113C28.8286 46.4122 28.8038 46.313 28.7783 46.2108C28.7117 46.2604 28.645 46.31 28.5764 46.3611C28.1706 46.5908 27.7271 46.5884 27.2759 46.5113C27.0055 46.3645 26.8128 46.1861 26.6749 45.9104C26.6302 45.5689 26.5998 45.2312 26.7597 44.9179C26.9989 44.622 27.2022 44.5002 27.5764 44.408C27.7991 44.3915 28.0199 44.3936 28.2431 44.3986C28.3314 44.3996 28.3314 44.3996 28.4215 44.4006C28.5655 44.4024 28.7094 44.4051 28.8534 44.408C28.7787 44.089 28.7787 44.089 28.567 43.8551C28.3799 43.8003 28.222 43.787 28.0271 43.7882C27.9318 43.7876 27.9318 43.7876 27.8346 43.787C27.6403 43.8082 27.5213 43.8655 27.351 43.9572C27.1914 43.9525 27.1914 43.9525 27.0505 43.8821C26.9362 43.6649 26.9003 43.5277 26.9003 43.2812C27.593 42.9645 28.4005 42.7766 29.1257 43.1074Z" fill="#273E73"/>
<path d="M24.9503 26.5296C25.4137 26.6328 25.8339 26.7838 26.2696 26.9709C26.3306 26.9964 26.3915 27.0219 26.4544 27.0481C26.8205 27.2036 27.1631 27.3769 27.5044 27.5813C27.3363 27.8966 27.1525 28.1794 26.9363 28.4639C26.6037 28.9116 26.3316 29.3889 26.0598 29.8753C26.0263 29.9348 25.9928 29.9943 25.9583 30.0556C25.9139 30.1356 25.9139 30.1356 25.8686 30.2172C25.7762 30.3614 25.6767 30.4703 25.5513 30.5861C25.0421 30.1591 24.5348 29.7301 24.0536 29.2715C23.9925 29.2134 23.9314 29.1553 23.8684 29.0954C23.7484 28.9334 23.7484 28.9334 23.7519 28.7782C23.8348 28.6101 23.9299 28.5066 24.063 28.3747C24.5257 27.8663 24.7956 27.1949 24.9503 26.5296Z" fill="#FAFDFD"/>
<path d="M35.9902 42.9734C36.1249 42.9747 36.1249 42.9747 36.2622 42.976C36.3972 42.977 36.3972 42.977 36.5348 42.9781C36.6045 42.979 36.6741 42.9798 36.7458 42.9807C36.537 43.6353 36.2882 44.2741 36.0416 44.9151C35.9987 45.0268 35.9559 45.1385 35.9131 45.2502C35.8296 45.4678 35.7459 45.6853 35.6621 45.9028C35.5856 46.1015 35.5101 46.3005 35.4355 46.4999C35.4028 46.5868 35.3701 46.6736 35.3364 46.7631C35.3082 46.8389 35.28 46.9147 35.2509 46.9928C35.099 47.351 34.91 47.5582 34.5861 47.779C34.1626 47.9256 33.812 47.9251 33.3983 47.7509C33.3379 47.7137 33.2774 47.6765 33.2152 47.6382C33.2896 47.4151 33.3639 47.192 33.4405 46.9621C33.6009 46.9714 33.6009 46.9714 33.7645 46.9809C34.0415 46.9825 34.0415 46.9825 34.2763 46.8447C34.444 46.3775 34.184 45.8949 33.9966 45.4679C33.97 45.4058 33.9435 45.3437 33.9161 45.2798C33.8317 45.0828 33.7465 44.8862 33.6612 44.6897C33.5757 44.4921 33.4904 44.2943 33.4055 44.0964C33.3529 43.9736 33.2998 43.8509 33.2463 43.7285C33.0649 43.3065 33.0649 43.3065 33.0649 43.0558C33.3872 43.0558 33.7095 43.0558 34.0415 43.0558C34.094 43.1942 34.1465 43.3326 34.2005 43.4752C34.2696 43.6562 34.3386 43.8373 34.4077 44.0183C34.4423 44.1096 34.4769 44.2009 34.5125 44.2949C34.5459 44.3823 34.5793 44.4697 34.6137 44.5597C34.6444 44.6404 34.6751 44.721 34.7067 44.8041C34.7896 45.0198 34.7896 45.0198 34.9429 45.2343C34.9653 45.1687 34.9877 45.1031 35.0107 45.0355C35.0936 44.7929 35.1766 44.5503 35.2598 44.3077C35.2958 44.2026 35.3317 44.0974 35.3675 43.9923C35.419 43.8413 35.4707 43.6905 35.5225 43.5397C35.5536 43.4489 35.5846 43.358 35.6167 43.2644C35.7215 42.9823 35.7215 42.9823 35.9902 42.9734Z" fill="#294075"/>
<path d="M55.2038 43.1303C55.6409 43.3907 55.9199 43.7652 56.0495 44.2577C56.0495 44.5056 56.0495 44.7535 56.0495 45.0089C55.2067 45.0089 54.3638 45.0089 53.4954 45.0089C53.6745 45.5966 53.6745 45.5966 54.0964 45.9103C54.6237 45.9963 54.9318 45.8836 55.3734 45.6098C55.562 45.6251 55.6564 45.6762 55.8241 45.7601C55.7828 46.0493 55.6757 46.1804 55.4485 46.361C54.9771 46.6169 54.4521 46.6883 53.9335 46.5397C53.4681 46.3372 53.1568 45.9696 52.8821 45.552C52.7081 45.0875 52.7227 44.4234 52.9071 43.9639C53.4354 43.1504 54.2535 42.7864 55.2038 43.1303Z" fill="#4CB6B5"/>
<path d="M27.2056 22.1724C27.7926 22.1706 28.3796 22.1692 28.9667 22.1683C29.1665 22.1679 29.3664 22.1674 29.5663 22.1667C29.8529 22.1658 30.1395 22.1654 30.4261 22.1651C30.561 22.1645 30.561 22.1645 30.6987 22.1639C30.8228 22.1639 30.8228 22.1639 30.9494 22.1639C31.0226 22.1637 31.0958 22.1636 31.1713 22.1634C31.3398 22.163 31.3085 22.1634 31.4123 22.1634C31.4123 22.7087 31.4123 23.3383 31.4123 23.9002C30.0241 23.9002 28.6359 23.9002 27.2056 23.9002C27.2056 23.33 27.2056 22.7599 27.2056 22.1724Z" fill="#3176A0"/>
<path d="M1.51318 41.7789C1.83545 41.7789 2.15771 41.7789 2.48975 41.7789C2.48975 43.0432 2.48975 44.3075 2.48975 45.6101C3.23344 45.6101 3.97713 45.6101 4.74335 45.6101C4.74335 45.9075 4.74335 46.205 4.74335 46.5115C3.6774 46.5115 2.61144 46.5115 1.51318 46.5115C1.51318 44.9498 1.51318 43.388 1.51318 41.7789Z" fill="#2C4374"/>
<path d="M6.84668 42.9807C7.16895 42.9807 7.49121 42.9807 7.82324 42.9807C7.90491 43.1872 7.98624 43.3938 8.06738 43.6004C8.08995 43.6574 8.11251 43.7143 8.13575 43.773C8.32437 44.2545 8.48945 44.7426 8.64956 45.2343C8.6742 45.1687 8.69884 45.1031 8.72423 45.0355C8.81548 44.7928 8.90692 44.5502 8.99848 44.3077C9.03812 44.2026 9.07769 44.0974 9.11718 43.9922C9.17386 43.8413 9.2308 43.6905 9.28779 43.5397C9.32202 43.4488 9.35624 43.3579 9.39151 43.2643C9.47589 43.0558 9.47589 43.0558 9.55101 42.9807C9.70272 42.9753 9.85462 42.9744 10.0064 42.976C10.1309 42.977 10.1309 42.977 10.2579 42.9781C10.3221 42.9789 10.3863 42.9798 10.4524 42.9807C10.2633 43.7054 9.97225 44.3913 9.69186 45.0841C9.64282 45.206 9.59382 45.328 9.54484 45.45C9.19026 46.3314 9.19026 46.3314 9.10029 46.5113C8.80281 46.5113 8.50533 46.5113 8.19884 46.5113C6.84668 43.2756 6.84668 43.2756 6.84668 42.9807Z" fill="#2B4072"/>
<path d="M24.4224 42.0793C24.7199 42.0793 25.0174 42.0793 25.3238 42.0793C25.3238 42.3768 25.3238 42.6743 25.3238 42.9808C25.5965 42.9808 25.8692 42.9808 26.1502 42.9808C26.1502 43.2535 26.1502 43.5262 26.1502 43.8071C25.8775 43.8071 25.6048 43.8071 25.3238 43.8071C25.3486 44.4269 25.3734 45.0466 25.399 45.6851C25.7336 45.6479 25.7336 45.6479 26.075 45.61C26.1478 45.9009 26.1559 46.1385 26.1502 46.4363C25.7393 46.5733 25.1866 46.6235 24.7866 46.4354C24.5925 46.2775 24.5015 46.1479 24.4224 45.9105C24.4161 45.7444 24.4143 45.5781 24.4151 45.4119C24.4153 45.3144 24.4155 45.2168 24.4158 45.1163C24.4164 45.0132 24.4171 44.9102 24.4177 44.8071C24.4181 44.7032 24.4184 44.5993 24.4187 44.4954C24.4196 44.2409 24.4209 43.9864 24.4224 43.732C24.2737 43.732 24.1249 43.732 23.9717 43.732C23.9717 43.5089 23.9717 43.2858 23.9717 43.0559C24.1204 43.0559 24.2692 43.0559 24.4224 43.0559C24.4224 42.7336 24.4224 42.4114 24.4224 42.0793Z" fill="#294174"/>
<path d="M51.4646 43.0559C51.8485 43.2311 51.985 43.4219 52.1407 43.8071C52.1693 44.0198 52.1671 44.2285 52.1627 44.4427C52.1624 44.5021 52.1621 44.5615 52.1617 44.6227C52.1605 44.811 52.1577 44.9992 52.1548 45.1875C52.1537 45.3157 52.1526 45.4439 52.1517 45.5722C52.1492 45.8853 52.1453 46.1984 52.1407 46.5115C51.9176 46.5115 51.6945 46.5115 51.4646 46.5115C51.4639 46.4379 51.4632 46.3644 51.4625 46.2887C51.4595 46.0154 51.4546 45.7421 51.449 45.4688C51.4469 45.3507 51.4453 45.2325 51.4443 45.1143C51.4426 44.9442 51.4391 44.7742 51.4353 44.6041C51.4352 44.5514 51.4351 44.4988 51.435 44.4445C51.4273 44.1884 51.4061 44.0537 51.2466 43.8492C51.0672 43.7158 50.9774 43.6894 50.7557 43.6898C50.6722 43.6873 50.6722 43.6873 50.5869 43.6848C50.3206 43.7571 50.2106 43.8961 50.0373 44.1076C49.9791 44.3753 49.9791 44.3753 49.9842 44.6701C49.9831 44.723 49.982 44.7758 49.9808 44.8302C49.9776 44.9978 49.9769 45.1654 49.9763 45.333C49.9746 45.4471 49.9727 45.5612 49.9706 45.6753C49.9659 45.954 49.9634 46.2327 49.9622 46.5115C49.7391 46.5115 49.516 46.5115 49.2861 46.5115C49.2861 45.3959 49.2861 44.2804 49.2861 43.1311C49.4845 43.1311 49.6828 43.1311 49.8871 43.1311C49.9119 43.255 49.9367 43.379 49.9622 43.5067C50.0335 43.4462 50.1048 43.3858 50.1782 43.3236C50.5742 42.9878 50.9567 43.0088 51.4646 43.0559Z" fill="#4AB5B6"/>
<path d="M44.64 43.1078C44.9709 43.2761 45.096 43.4703 45.2286 43.807C45.2569 44.0197 45.255 44.2284 45.2506 44.4426C45.2503 44.502 45.25 44.5614 45.2496 44.6226C45.2484 44.8109 45.2456 44.9991 45.2427 45.1873C45.2415 45.3156 45.2405 45.4438 45.2396 45.572C45.2371 45.8852 45.2332 46.1982 45.2286 46.5113C45.0055 46.5113 44.7824 46.5113 44.5525 46.5113C44.5518 46.4378 44.5511 46.3643 44.5504 46.2885C44.5474 46.0152 44.5424 45.742 44.5369 45.4687C44.5348 45.3505 44.5332 45.2324 44.5322 45.1142C44.5305 44.9441 44.527 44.7741 44.5232 44.604C44.5231 44.5513 44.523 44.4986 44.5229 44.4444C44.5154 44.1938 44.4926 44.053 44.3425 43.8491C44.1447 43.7091 43.9807 43.6929 43.7409 43.6847C43.4837 43.7583 43.2954 43.9059 43.1252 44.1075C43.0568 44.3746 43.0568 44.3746 43.0648 44.67C43.0637 44.7228 43.0627 44.7757 43.0617 44.8301C43.0589 44.9977 43.0591 45.1652 43.0595 45.3329C43.0581 45.447 43.0566 45.5611 43.0548 45.6752C43.0509 45.9539 43.0498 46.2326 43.0501 46.5113C42.827 46.5113 42.6039 46.5113 42.374 46.5113C42.374 45.3958 42.374 44.2803 42.374 43.1309C42.5723 43.1309 42.7707 43.1309 42.975 43.1309C42.975 43.2797 42.975 43.4284 42.975 43.5817C43.0246 43.5817 43.0741 43.5817 43.1252 43.5817C43.1508 43.5143 43.1508 43.5143 43.1769 43.4455C43.4785 42.9428 44.1273 42.944 44.64 43.1078Z" fill="#4AB7B8"/>
<path d="M19.0152 13.9843C20.0933 14.1462 20.9736 14.9145 21.6256 15.7543C21.7947 15.9879 21.7947 15.9879 21.7947 16.1627C19.9804 17.0015 19.9804 17.0015 19.0903 16.9891C19.0213 16.3177 19.0059 15.6541 19.0105 14.9796C19.0108 14.8833 19.0112 14.7871 19.0115 14.6879C19.0124 14.4534 19.0136 14.2188 19.0152 13.9843Z" fill="#F9FAFB"/>
<path d="M30.6553 42.9807C30.9527 42.9807 31.2502 42.9807 31.5567 42.9807C31.5815 43.1543 31.6063 43.3278 31.6318 43.5066C31.6768 43.4477 31.7217 43.3888 31.768 43.3282C32.0488 42.9911 32.0488 42.9911 32.3111 42.9661C32.3643 42.9678 32.4175 42.9696 32.4722 42.9713C32.614 42.976 32.614 42.976 32.7586 42.9807C32.7586 43.2782 32.7586 43.5757 32.7586 43.8822C32.6029 43.9077 32.6029 43.9077 32.4441 43.9338C32.1018 44.0088 31.9294 44.13 31.707 44.408C31.6062 44.6095 31.6157 44.7749 31.6081 45.0002C31.6049 45.0878 31.6018 45.1754 31.5985 45.2657C31.5941 45.4036 31.5941 45.4036 31.5896 45.5442C31.5863 45.6367 31.5831 45.7292 31.5798 45.8244C31.5718 46.0534 31.5642 46.2824 31.5567 46.5114C31.2592 46.5114 30.9618 46.5114 30.6553 46.5114C30.6553 45.3463 30.6553 44.1812 30.6553 42.9807Z" fill="#283F74"/>
<path d="M21.4951 25.703C22.1941 25.732 22.832 25.8474 23.5046 26.0363C23.6368 26.0716 23.6368 26.0716 23.7716 26.1075C24.2485 26.2383 24.2485 26.2383 24.4248 26.304C24.5345 26.5234 24.4581 26.6373 24.3826 26.8674C24.1764 27.4607 23.9064 27.9729 23.4482 28.4073C23.1409 28.2924 22.9809 28.0752 22.7909 27.8205C22.7583 27.7773 22.7257 27.7342 22.6922 27.6898C22.2286 27.0668 21.8259 26.4059 21.4951 25.703Z" fill="#FAFCFC"/>
<path d="M5.41797 43.0558C5.71544 43.0558 6.01292 43.0558 6.31941 43.0558C6.31941 44.1962 6.31941 45.3365 6.31941 46.5114C6.02194 46.5114 5.72446 46.5114 5.41797 46.5114C5.41797 45.3711 5.41797 44.2307 5.41797 43.0558Z" fill="#284072"/>
<path d="M38.6959 20.9704C38.9109 21.1214 39.0444 21.2286 39.1049 21.4913C39.1213 21.7799 39.089 21.9195 38.9306 22.1677C38.7222 22.3699 38.661 22.3947 38.3672 22.4165C38.0949 22.3977 38.0949 22.3977 37.9467 22.2839C37.7167 22.1154 37.5664 22.1624 37.2929 22.1976C36.8982 22.2764 36.5109 22.3852 36.125 22.4998C35.7048 22.6195 35.3983 22.6522 34.9868 22.4681C34.9465 22.4449 34.9063 22.4217 34.8647 22.3977C34.8647 22.3481 34.8647 22.2985 34.8647 22.2475C35.151 22.1626 35.4375 22.0782 35.7239 21.9939C35.8043 21.9701 35.8846 21.9463 35.9673 21.9217C37.1608 21.5714 37.1608 21.5714 37.6442 21.5714C37.6504 21.528 37.6566 21.4846 37.663 21.4399C37.7355 21.2223 37.8491 21.1205 38.0198 20.9704C38.2621 20.8493 38.4376 20.9091 38.6959 20.9704Z" fill="#7CC18D"/>
<path d="M21.8694 43.7319C22.1615 43.8923 22.3707 44.049 22.5454 44.3329C22.6119 44.7291 22.5913 45.0659 22.414 45.4268C22.1518 45.7108 22.0382 45.7527 21.6487 45.7836C21.364 45.7746 21.1894 45.7246 20.9679 45.5348C20.7372 45.2085 20.6991 44.9037 20.7109 44.5136C20.7723 44.1631 20.9776 43.9819 21.2637 43.7788C21.4823 43.7126 21.6415 43.7045 21.8694 43.7319Z" fill="#F8F9F9"/>
<path d="M18.5654 22.6232C19.1108 22.648 19.6562 22.6727 20.2181 22.6983C20.3048 22.9198 20.3916 23.1414 20.481 23.3697C20.5084 23.4396 20.5359 23.5095 20.5642 23.5815C20.5855 23.6362 20.6069 23.691 20.6289 23.7473C20.6619 23.8317 20.6619 23.8317 20.6956 23.9178C20.7439 24.0505 20.7439 24.0505 20.7439 24.1256C20.694 24.1321 20.6442 24.1385 20.5928 24.1452C20.1555 24.2148 19.8936 24.2799 19.6171 24.6514C19.518 24.8516 19.518 24.8516 19.4669 25.027C19.2478 24.9175 19.2385 24.7776 19.1567 24.5496C19.127 24.4671 19.0973 24.3847 19.0668 24.2997C19.0361 24.2128 19.0055 24.1259 18.9739 24.0364C18.9275 23.9082 18.9275 23.9082 18.8801 23.7774C18.7403 23.3852 18.6344 23.0371 18.5654 22.6232Z" fill="#337BA9"/>
<path d="M46.1343 41.7789C46.3326 41.7789 46.5309 41.7789 46.7352 41.7789C46.7352 43.3407 46.7352 44.9024 46.7352 46.5115C46.5369 46.5115 46.3386 46.5115 46.1343 46.5115C46.1343 44.9498 46.1343 43.388 46.1343 41.7789Z" fill="#43B4B4"/>
<path d="M47.7134 43.1309C47.9365 43.1309 48.1596 43.1309 48.3895 43.1309C48.3895 44.2465 48.3895 45.362 48.3895 46.5113C48.1664 46.5113 47.9432 46.5113 47.7134 46.5113C47.7134 45.3958 47.7134 44.2803 47.7134 43.1309Z" fill="#4CB7B7"/>
<path d="M53.4938 45.4597C53.644 45.4597 53.644 45.4597 53.8365 45.6428C53.8969 45.7063 53.9574 45.7699 54.0196 45.8353C54.1414 45.9571 54.2742 45.9291 54.4422 45.9339C54.7224 45.9331 54.8995 45.9053 55.137 45.7555C55.3718 45.61 55.3718 45.61 55.5455 45.624C55.6382 45.6687 55.7305 45.7142 55.8225 45.7602C55.7812 46.0494 55.6741 46.1806 55.4469 46.3612C55.0183 46.5938 54.5758 46.6554 54.0947 46.5865C53.6907 46.4554 53.3927 46.2364 53.1182 45.9104C53.1182 45.8609 53.1182 45.8113 53.1182 45.7602C53.1662 45.7385 53.2142 45.7168 53.2637 45.6945C53.4301 45.6229 53.4301 45.6229 53.4938 45.4597Z" fill="#45B6B6"/>
<path d="M54.8421 43.6388C55.0398 43.7434 55.1964 43.8473 55.3304 44.0279C55.3726 44.1828 55.3726 44.1828 55.3726 44.5584C54.7529 44.5584 54.1332 44.5584 53.4946 44.5584C53.5702 44.1049 53.6381 43.9002 54.0064 43.6335C54.2942 43.543 54.5572 43.5273 54.8421 43.6388Z" fill="#F9FDFC"/>
<path d="M28.8539 45.0089C28.8774 45.2531 28.8774 45.2531 28.8539 45.5348C28.6075 45.7812 28.4208 45.9018 28.0745 45.9339C27.8022 45.9104 27.8022 45.9104 27.6191 45.7836C27.5017 45.6099 27.5017 45.6099 27.4595 45.4221C27.5017 45.2343 27.5017 45.2343 27.6473 45.0606C28.0367 44.846 28.4343 44.8919 28.8539 45.0089Z" fill="#F1F2F4"/>
<path d="M12.6962 43.6707C12.9743 43.7793 13.0745 43.9289 13.2288 44.1828C13.2288 44.2819 13.2288 44.3811 13.2288 44.4832C12.6834 44.4832 12.1381 44.4832 11.5762 44.4832C11.6574 44.0769 11.7128 43.9842 12.0193 43.7408C12.2567 43.6146 12.4359 43.6213 12.6962 43.6707Z" fill="#F0F2F6"/>
<path d="M55.8984 41.4784C56.5078 41.4263 56.9745 41.4856 57.476 41.854C57.9145 42.2958 58.1565 42.7193 58.1614 43.347C58.159 43.4503 58.1562 43.5537 58.152 43.6569C58.0777 43.6569 58.0033 43.6569 57.9267 43.6569C57.9211 43.6051 57.9154 43.5533 57.9097 43.4999C57.8279 42.9159 57.6691 42.4258 57.1916 42.0486C56.7881 41.8174 56.3553 41.7957 55.8984 41.7789C55.8984 41.6797 55.8984 41.5806 55.8984 41.4784Z" fill="#57BEBC"/>
<path d="M5.41797 41.6287C5.74023 41.6287 6.0625 41.6287 6.39453 41.6287C6.39453 41.9013 6.39453 42.174 6.39453 42.455C6.10521 42.5996 5.73344 42.5338 5.41797 42.5301C5.41797 42.2326 5.41797 41.9352 5.41797 41.6287Z" fill="#2F4577"/>
<path d="M37.6448 45.6099C37.7856 45.6944 37.7856 45.6944 37.8701 45.8353C37.911 46.1097 37.903 46.2367 37.7481 46.4691C37.5697 46.5865 37.5697 46.5865 37.3349 46.5771C37.1189 46.5114 37.1189 46.5114 36.9687 46.3611C36.9461 46.2203 36.9461 46.2203 36.9452 46.0606C36.944 46.008 36.9427 45.9553 36.9414 45.901C36.9504 45.8545 36.9594 45.808 36.9687 45.7602C37.2293 45.5864 37.3384 45.578 37.6448 45.6099Z" fill="#4EBABC"/>
<path d="M55.9756 42.0043C56.4922 41.9551 56.7693 42.0195 57.1863 42.3326C57.5557 42.6522 57.5849 42.9632 57.6197 43.4307C57.6225 43.4805 57.6253 43.5304 57.6282 43.5818C57.5291 43.557 57.4299 43.5322 57.3277 43.5067C57.3213 43.4622 57.3148 43.4178 57.3081 43.372C57.234 42.9552 57.1449 42.7294 56.8019 42.455C56.6294 42.3687 56.4956 42.3567 56.3042 42.3376C56.2428 42.3313 56.1815 42.325 56.1182 42.3185C56.0711 42.314 56.0241 42.3094 55.9756 42.3047C55.9756 42.2056 55.9756 42.1064 55.9756 42.0043Z" fill="#5CC0BD"/>
<path d="M48.0437 41.6896C48.3113 41.7037 48.3113 41.7037 48.4616 41.8539C48.4866 42.0896 48.5013 42.2419 48.3724 42.4455C48.187 42.5605 48.0751 42.5621 47.8606 42.53C47.7198 42.4502 47.7198 42.4502 47.6353 42.3046C47.6763 41.7096 47.6763 41.7096 48.0437 41.6896Z" fill="#4DB6B9"/>
<path d="M31.9357 23.5999C32.0101 23.6247 32.0844 23.6495 32.1611 23.675C32.1858 23.799 32.2106 23.9229 32.2362 24.0506C31.9139 24.2737 31.5916 24.4968 31.2596 24.7267C31.2596 24.5514 31.2596 24.3762 31.2596 24.2009C31.21 24.1761 31.1605 24.1513 31.1094 24.1258C31.2418 24.0356 31.3749 23.9466 31.5085 23.8581C31.5825 23.8085 31.6566 23.7588 31.7329 23.7076C31.7998 23.6721 31.8668 23.6365 31.9357 23.5999Z" fill="#66B49B"/>
<path d="M22.7698 20.7453C22.8194 20.7701 22.869 20.7949 22.9201 20.8204C22.9339 20.8872 22.9339 20.8872 22.9479 20.9554C23.012 21.1798 23.1326 21.2804 23.3004 21.4402C23.3555 21.4932 23.4106 21.5463 23.4673 21.601C23.5311 21.6608 23.5311 21.6608 23.5962 21.7219C23.3319 21.7219 23.2678 21.6599 23.0703 21.4965C23.1199 21.6452 23.1695 21.794 23.2206 21.9472C22.9952 21.9472 22.9952 21.9472 22.8746 21.8486C22.8354 21.8068 22.7962 21.765 22.7557 21.7219C22.7159 21.68 22.6761 21.6382 22.6351 21.5951C22.5903 21.5463 22.5903 21.5463 22.5445 21.4965C22.4205 21.5461 22.2966 21.5957 22.1689 21.6467C22.1441 21.5724 22.1193 21.498 22.0938 21.4214C22.1635 21.4074 22.2332 21.3935 22.305 21.3791C22.5623 21.2631 22.5836 21.2421 22.6853 20.9988C22.7132 20.9152 22.7411 20.8315 22.7698 20.7453Z" fill="#428AAA"/>
<path d="M56.0507 42.5299C56.2791 42.4965 56.442 42.4962 56.6458 42.6118C56.9147 42.8212 57.0154 42.9314 57.0977 43.2717C57.0992 43.3492 57.1008 43.4267 57.1024 43.5065C57.0032 43.5065 56.9041 43.5065 56.8019 43.5065C56.7717 43.381 56.7717 43.381 56.7409 43.253C56.6774 42.9642 56.6774 42.9642 56.4263 42.8304C56.2768 42.8011 56.1266 42.7754 55.9756 42.7553C56.0004 42.6809 56.0252 42.6065 56.0507 42.5299Z" fill="#4FBDB7"/>
<path d="M17.4353 6.3222C17.4849 6.34699 17.5344 6.37178 17.5855 6.39732C17.3206 6.66973 17.0522 6.93363 16.7639 7.18139C16.4458 7.45532 16.151 7.74975 15.8578 8.04997C15.8082 8.02518 15.7586 8.00039 15.7075 7.97485C16.054 7.55804 16.4204 7.19698 16.8343 6.84805C16.9472 6.74966 17.0599 6.65107 17.1724 6.55226C17.26 6.47557 17.3476 6.39889 17.4353 6.3222Z" fill="#2D4E8E"/>
<path d="M55.5201 45.9855C55.5696 46.0351 55.6192 46.0847 55.6703 46.1358C55.3886 46.4433 55.0484 46.5725 54.6377 46.6006C54.4555 46.6006 54.2747 46.5966 54.0928 46.5865C54.0928 46.5617 54.0928 46.5369 54.0928 46.5114C54.1594 46.5085 54.1594 46.5085 54.2275 46.5055C54.633 46.4764 54.8371 46.4175 55.1445 46.1358C55.3557 46.0419 55.3557 46.0419 55.5201 45.9855Z" fill="#5BC0C3"/>
<path d="M56.5776 42.3047C56.8742 42.4365 57.0975 42.5367 57.2536 42.8305C57.2289 42.9049 57.2041 42.9793 57.1785 43.0559C56.9131 42.9084 56.7094 42.7524 56.5024 42.53C56.5272 42.4557 56.552 42.3813 56.5776 42.3047Z" fill="#E7F8F6"/>
<path d="M55.527 45.6334C55.6725 45.685 55.6725 45.685 55.8228 45.7602C55.798 45.8593 55.7732 45.9585 55.7476 46.0606C55.7228 46.0111 55.6981 45.9615 55.6725 45.9104C55.5238 45.9848 55.5238 45.9848 55.372 46.0606C55.3472 46.0111 55.3225 45.9615 55.2969 45.9104C55.2473 45.96 55.1978 46.0096 55.1467 46.0606C54.987 46.0325 54.987 46.0325 54.8462 45.9855C55.3464 45.606 55.3464 45.606 55.527 45.6334Z" fill="#4EBCBA"/>
<path d="M35.7678 27.506C35.8174 27.506 35.867 27.506 35.9181 27.506C35.8152 27.7435 35.7687 27.806 35.5425 27.9568C35.6176 27.8065 35.6927 27.6563 35.7678 27.506ZM35.4674 27.9568C35.4674 28.2689 35.2959 28.3955 35.0918 28.6094C35.0559 28.6478 35.0201 28.6862 34.9832 28.7257C34.8947 28.8204 34.8055 28.9145 34.7162 29.0084C34.6666 28.9837 34.617 28.9589 34.5659 28.9333C34.8634 28.6111 35.1609 28.2888 35.4674 27.9568Z" fill="#6CC0A1"/>
<path d="M56.123 43.1309C56.2488 43.1524 56.3742 43.1773 56.4986 43.206C56.4986 43.33 56.4986 43.4539 56.4986 43.5816C56.3746 43.5569 56.2507 43.5321 56.123 43.5065C56.0807 43.361 56.0807 43.361 56.0479 43.206C56.0726 43.1813 56.0974 43.1565 56.123 43.1309Z" fill="#46BAB8"/>
<path d="M25.2512 14.2847C25.3255 14.3343 25.3999 14.3839 25.4765 14.435C25.4517 14.6085 25.4269 14.782 25.4014 14.9608C25.0352 14.8294 25.0352 14.8294 24.9507 14.6603C25.0251 14.6603 25.0994 14.6603 25.176 14.6603C25.2008 14.5364 25.2256 14.4124 25.2512 14.2847Z" fill="#406CA0"/>
<path d="M56.8735 42.3798C57.0519 42.3657 57.0519 42.3657 57.2491 42.3798C57.3994 42.6051 57.3994 42.6051 57.3994 42.9056C57.1117 42.7965 57.0147 42.648 56.8735 42.3798Z" fill="#4BBBB9"/>
<path d="M58.002 42.9807C58.0516 42.9807 58.1012 42.9807 58.1522 42.9807C58.1522 43.2038 58.1522 43.4269 58.1522 43.6568C58.0779 43.6568 58.0035 43.6568 57.9269 43.6568C57.9196 43.1946 57.9196 43.1946 57.9269 43.0558C57.9517 43.031 57.9765 43.0063 58.002 42.9807Z" fill="#53C0BA"/>
<path d="M34.9133 47.1779C34.9722 47.181 35.0311 47.1841 35.0918 47.1873C34.8946 47.5535 34.8946 47.5535 34.641 47.638C34.5941 47.4972 34.5941 47.4972 34.5659 47.3375C34.7162 47.1873 34.7162 47.1873 34.9133 47.1779Z" fill="#2C4782"/>
<path d="M55.8964 41.4784C56.1499 41.4643 56.1499 41.4643 56.4223 41.4784C56.4718 41.5528 56.5214 41.6271 56.5725 41.7038C56.3246 41.7038 56.0767 41.7038 55.8213 41.7038C55.8461 41.6294 55.8709 41.555 55.8964 41.4784Z" fill="#44B5B4"/>
<path d="M16.2334 7.37378C16.2829 7.39857 16.3325 7.42336 16.3836 7.4489C16.2101 7.64722 16.0365 7.84553 15.8578 8.04986C15.8082 8.02507 15.7586 8.00028 15.7075 7.97474C15.881 7.77642 16.0546 7.57811 16.2334 7.37378Z" fill="#3D5E96"/>
<path d="M56.0479 42.7553C56.3899 42.7276 56.3899 42.7276 56.5596 42.868C56.589 42.9052 56.6185 42.9424 56.6488 42.9807C56.5744 43.0551 56.5001 43.1294 56.4235 43.2061C56.3491 43.1565 56.2747 43.1069 56.1981 43.0558C56.1981 43.0062 56.1981 42.9567 56.1981 42.9056C56.1485 42.856 56.0989 42.8064 56.0479 42.7553Z" fill="#D5F2EF"/>
<path d="M56.951 42.9807C57.1013 43.131 57.1013 43.131 57.1107 43.3281C57.1076 43.387 57.1045 43.4459 57.1013 43.5066C57.0021 43.5066 56.9029 43.5066 56.8008 43.5066C56.8665 43.0652 56.8665 43.0652 56.951 42.9807Z" fill="#68C5C2"/>
<path d="M37.1938 25.4026C37.2434 25.4026 37.2929 25.4026 37.344 25.4026C37.3487 25.4553 37.3533 25.5079 37.3581 25.5622C37.4411 25.8558 37.5906 26.0038 37.7947 26.2289C37.4718 26.1093 37.3142 25.9017 37.1187 25.6279C37.1434 25.5536 37.1682 25.4792 37.1938 25.4026Z" fill="#70BFA0"/>
<path d="M22.9189 21.196C23.24 21.3149 23.3896 21.5345 23.595 21.7969C23.3368 21.6822 23.1301 21.5339 22.9189 21.3462C22.9189 21.2966 22.9189 21.2471 22.9189 21.196Z" fill="#4A94AF"/>
<path d="M23.9717 43.0558C24.046 43.0558 24.1204 43.0558 24.197 43.0558C24.1475 43.2542 24.0979 43.4525 24.0468 43.6568C24.1707 43.6568 24.2947 43.6568 24.4224 43.6568C24.4224 43.6816 24.4224 43.7064 24.4224 43.7319C24.2737 43.7319 24.1249 43.7319 23.9717 43.7319C23.9717 43.5088 23.9717 43.2857 23.9717 43.0558Z" fill="#16346D"/>
<path d="M37.7973 46.361C37.708 46.4784 37.708 46.4784 37.5719 46.5864C37.37 46.5629 37.37 46.5629 37.1963 46.5113C37.2211 46.4617 37.2459 46.4121 37.2714 46.361C37.6076 46.2662 37.6076 46.2662 37.7973 46.361Z" fill="#55C4C5"/>
<path d="M57.4002 42.6802C57.4848 42.7976 57.4848 42.7976 57.5505 42.9807C57.4848 43.2624 57.4848 43.2624 57.4002 43.5066C57.3755 43.5066 57.3507 43.5066 57.3251 43.5066C57.3003 43.3082 57.2755 43.1099 57.25 42.9056C57.2996 42.9056 57.3492 42.9056 57.4002 42.9056C57.4002 42.8312 57.4002 42.7569 57.4002 42.6802Z" fill="#63C7C3"/>
<path d="M56.5742 42.6802C56.7198 42.7413 56.7198 42.7413 56.8747 42.8305C56.8995 42.9048 56.9243 42.9792 56.9498 43.0558C56.9002 43.1054 56.8507 43.155 56.7996 43.2061C56.5742 42.8493 56.5742 42.8493 56.5742 42.6802Z" fill="#43B5B4"/>
<path d="M15.7826 33.2152C15.8818 33.2648 15.981 33.3144 16.0831 33.3655C16.0831 33.4646 16.0831 33.5638 16.0831 33.6659C15.9592 33.542 15.8352 33.418 15.7075 33.2903C15.7323 33.2655 15.7571 33.2408 15.7826 33.2152Z" fill="#429CB4"/>
<path d="M41.7021 8.72614C41.826 8.85008 41.95 8.97403 42.0777 9.10174C41.9785 9.10174 41.8794 9.10174 41.7772 9.10174C41.7276 9.00258 41.678 8.90342 41.627 8.80126C41.6517 8.77647 41.6765 8.75168 41.7021 8.72614Z" fill="#365E98"/>
<path d="M20.0664 45.6851C20.3194 45.7897 20.441 45.9088 20.5922 46.1358C20.5179 46.1358 20.4435 46.1358 20.3669 46.1358C20.0664 45.801 20.0664 45.801 20.0664 45.6851Z" fill="#2C497C"/>
<path d="M53.0447 43.8069C53.1649 44.0474 53.0471 44.2368 52.9696 44.483C52.92 44.483 52.8704 44.483 52.8193 44.483C52.8567 44.2025 52.8851 44.0464 53.0447 43.8069Z" fill="#58BDB6"/>
<path d="M11.8031 14.3598C11.8527 14.3846 11.9023 14.4094 11.9534 14.4349C11.8542 14.6332 11.755 14.8316 11.6529 15.0359C11.5778 14.7354 11.5778 14.7354 11.6858 14.5288C11.7245 14.473 11.7632 14.4173 11.8031 14.3598Z" fill="#355F95"/>
<path d="M40.646 7.82446C40.7452 7.84925 40.8443 7.87404 40.9465 7.89958C40.9465 7.97395 40.9465 8.04832 40.9465 8.12494C40.9961 8.12494 41.0456 8.12494 41.0967 8.12494C41.0967 8.17452 41.0967 8.2241 41.0967 8.27518C40.8998 8.1964 40.8117 8.15129 40.7023 7.96531C40.6837 7.91883 40.6652 7.87235 40.646 7.82446Z" fill="#3A5E99"/>
</svg>
